<mxfile host="app.diagrams.net" modified="2023-09-11T18:58:38.772Z" agent="Mozilla/5.0 (Macintosh; Intel Mac OS X 10_15_7) AppleWebKit/537.36 (KHTML, like Gecko) Chrome/116.0.0.0 Safari/537.36" etag="TxhX4VyQ9HiU9A-ZOcQb" version="21.7.1" type="device">
  <diagram name="Page-1" id="jWfavvmStdwcNfVD2xg5">
    <mxGraphModel dx="1159" dy="740" grid="1" gridSize="10" guides="1" tooltips="1" connect="1" arrows="1" fold="1" page="1" pageScale="1" pageWidth="827" pageHeight="1169" math="0" shadow="0">
      <root>
        <mxCell id="0" />
        <mxCell id="1" parent="0" />
        <mxCell id="SOkhJRATVcnTc7ufOm0G-1" value="" style="rounded=1;arcSize=4;dashed=1;strokeColor=#F59D56;fillColor=none;gradientColor=none;dashPattern=8 4;strokeWidth=2;" vertex="1" parent="1">
          <mxGeometry x="241" y="530" width="559" height="410" as="geometry" />
        </mxCell>
        <mxCell id="SOkhJRATVcnTc7ufOm0G-28" style="edgeStyle=orthogonalEdgeStyle;rounded=0;orthogonalLoop=1;jettySize=auto;html=1;" edge="1" parent="1" source="SOkhJRATVcnTc7ufOm0G-2">
          <mxGeometry relative="1" as="geometry">
            <mxPoint x="506" y="610.8" as="targetPoint" />
          </mxGeometry>
        </mxCell>
        <mxCell id="SOkhJRATVcnTc7ufOm0G-2" value="&lt;font style=&quot;font-size: 10px;&quot; face=&quot;Comic Sans MS&quot;&gt;bucket:quarantine&lt;/font&gt;" style="outlineConnect=0;dashed=0;verticalLabelPosition=bottom;verticalAlign=top;align=center;html=1;shape=mxgraph.aws3.bucket_with_objects;fillColor=#E05243;gradientColor=none;" vertex="1" parent="1">
          <mxGeometry x="320" y="591.63" width="40" height="38.25" as="geometry" />
        </mxCell>
        <mxCell id="SOkhJRATVcnTc7ufOm0G-3" value="&lt;font style=&quot;font-size: 10px;&quot; face=&quot;Comic Sans MS&quot;&gt;temp:credentials&lt;/font&gt;" style="html=1;verticalLabelPosition=bottom;align=center;labelBackgroundColor=#ffffff;verticalAlign=top;strokeWidth=2;strokeColor=#0080F0;shadow=0;dashed=0;shape=mxgraph.ios7.icons.clock;" vertex="1" parent="1">
          <mxGeometry x="58" y="645.75" width="20" height="20" as="geometry" />
        </mxCell>
        <mxCell id="SOkhJRATVcnTc7ufOm0G-4" value="" style="sketch=0;outlineConnect=0;fontColor=#232F3E;gradientColor=none;fillColor=#BF0816;strokeColor=none;dashed=0;verticalLabelPosition=bottom;verticalAlign=top;align=center;html=1;fontSize=12;fontStyle=0;aspect=fixed;pointerEvents=1;shape=mxgraph.aws4.long_term_security_credential;" vertex="1" parent="1">
          <mxGeometry x="84.77999999999997" y="625.75" width="45.22" height="40" as="geometry" />
        </mxCell>
        <mxCell id="SOkhJRATVcnTc7ufOm0G-22" style="edgeStyle=orthogonalEdgeStyle;rounded=0;orthogonalLoop=1;jettySize=auto;html=1;entryX=1;entryY=0.5;entryDx=0;entryDy=0;" edge="1" parent="1" source="SOkhJRATVcnTc7ufOm0G-5">
          <mxGeometry relative="1" as="geometry">
            <mxPoint x="237" y="598.75" as="sourcePoint" />
            <mxPoint x="160" y="559.5" as="targetPoint" />
            <Array as="points">
              <mxPoint x="226" y="560" />
            </Array>
          </mxGeometry>
        </mxCell>
        <mxCell id="SOkhJRATVcnTc7ufOm0G-26" style="edgeStyle=orthogonalEdgeStyle;rounded=0;orthogonalLoop=1;jettySize=auto;html=1;entryX=0.06;entryY=0.5;entryDx=0;entryDy=0;entryPerimeter=0;" edge="1" parent="1" source="SOkhJRATVcnTc7ufOm0G-5" target="SOkhJRATVcnTc7ufOm0G-2">
          <mxGeometry relative="1" as="geometry" />
        </mxCell>
        <mxCell id="SOkhJRATVcnTc7ufOm0G-5" value="&lt;font style=&quot;font-size: 10px;&quot; face=&quot;Comic Sans MS&quot;&gt;WAF:custom:validations&lt;/font&gt;" style="sketch=0;outlineConnect=0;fontColor=#232F3E;gradientColor=none;fillColor=#BF0816;strokeColor=none;dashed=0;verticalLabelPosition=bottom;verticalAlign=top;align=center;html=1;fontSize=12;fontStyle=0;aspect=fixed;pointerEvents=1;shape=mxgraph.aws4.network_firewall_endpoints;" vertex="1" parent="1">
          <mxGeometry x="204" y="586.75" width="48" height="48" as="geometry" />
        </mxCell>
        <mxCell id="SOkhJRATVcnTc7ufOm0G-11" style="edgeStyle=orthogonalEdgeStyle;rounded=0;orthogonalLoop=1;jettySize=auto;html=1;entryX=0;entryY=0.5;entryDx=0;entryDy=0;" edge="1" parent="1" source="SOkhJRATVcnTc7ufOm0G-8" target="SOkhJRATVcnTc7ufOm0G-10">
          <mxGeometry relative="1" as="geometry" />
        </mxCell>
        <mxCell id="SOkhJRATVcnTc7ufOm0G-8" value="" style="points=[[0.35,0,0],[0.98,0.51,0],[1,0.71,0],[0.67,1,0],[0,0.795,0],[0,0.65,0]];verticalLabelPosition=bottom;sketch=0;html=1;verticalAlign=top;aspect=fixed;align=center;pointerEvents=1;shape=mxgraph.cisco19.user;fillColor=#005073;strokeColor=none;" vertex="1" parent="1">
          <mxGeometry x="40" y="585.75" width="50" height="50" as="geometry" />
        </mxCell>
        <mxCell id="SOkhJRATVcnTc7ufOm0G-12" style="edgeStyle=orthogonalEdgeStyle;rounded=0;orthogonalLoop=1;jettySize=auto;html=1;" edge="1" parent="1" source="SOkhJRATVcnTc7ufOm0G-10" target="SOkhJRATVcnTc7ufOm0G-5">
          <mxGeometry relative="1" as="geometry" />
        </mxCell>
        <mxCell id="SOkhJRATVcnTc7ufOm0G-10" value="" style="shape=image;html=1;verticalAlign=top;verticalLabelPosition=bottom;labelBackgroundColor=#ffffff;imageAspect=0;aspect=fixed;image=https://cdn1.iconfinder.com/data/icons/bootstrap-vol-3/16/filetype-csv-128.png" vertex="1" parent="1">
          <mxGeometry x="130" y="595.75" width="30" height="30" as="geometry" />
        </mxCell>
        <mxCell id="SOkhJRATVcnTc7ufOm0G-15" value="" style="shape=image;html=1;verticalAlign=top;verticalLabelPosition=bottom;labelBackgroundColor=#ffffff;imageAspect=0;aspect=fixed;image=https://cdn1.iconfinder.com/data/icons/bootstrap-vol-3/16/filetype-exe-128.png" vertex="1" parent="1">
          <mxGeometry x="136" y="545" width="25" height="25" as="geometry" />
        </mxCell>
        <mxCell id="SOkhJRATVcnTc7ufOm0G-18" value="&lt;font style=&quot;font-size: 10px;&quot; face=&quot;Comic Sans MS&quot;&gt;denied&lt;/font&gt;" style="shape=image;html=1;verticalAlign=top;verticalLabelPosition=bottom;labelBackgroundColor=#ffffff;imageAspect=0;aspect=fixed;image=https://cdn2.iconfinder.com/data/icons/lullacons/folder-option-denied.png" vertex="1" parent="1">
          <mxGeometry x="181" y="543" width="30" height="30" as="geometry" />
        </mxCell>
        <mxCell id="SOkhJRATVcnTc7ufOm0G-29" value="&lt;i&gt;&lt;font face=&quot;Comic Sans MS&quot;&gt;trigger:after:upload&lt;/font&gt;&lt;/i&gt;" style="text;html=1;strokeColor=none;fillColor=none;align=center;verticalAlign=middle;whiteSpace=wrap;rounded=0;" vertex="1" parent="1">
          <mxGeometry x="370" y="585" width="130" height="30" as="geometry" />
        </mxCell>
        <mxCell id="SOkhJRATVcnTc7ufOm0G-30" value="" style="rounded=1;arcSize=3;dashed=0;fillColor=none;gradientColor=none;strokeWidth=2;" vertex="1" parent="1">
          <mxGeometry x="472" y="771" width="320" height="149" as="geometry" />
        </mxCell>
        <mxCell id="SOkhJRATVcnTc7ufOm0G-31" value="" style="dashed=0;html=1;shape=mxgraph.aws3.virtual_private_cloud;fillColor=#F58536;gradientColor=none;dashed=0;" vertex="1" parent="1">
          <mxGeometry x="486" y="760" width="40" height="24" as="geometry" />
        </mxCell>
        <mxCell id="SOkhJRATVcnTc7ufOm0G-33" value="" style="rounded=1;arcSize=5;dashed=1;fillColor=none;gradientColor=none;dashPattern=8 3 1 3;strokeWidth=2;" vertex="1" parent="1">
          <mxGeometry x="488.75" y="794.25" width="133.25" height="95.75" as="geometry" />
        </mxCell>
        <mxCell id="SOkhJRATVcnTc7ufOm0G-52" style="edgeStyle=orthogonalEdgeStyle;rounded=0;orthogonalLoop=1;jettySize=auto;html=1;entryX=0;entryY=0.5;entryDx=0;entryDy=0;" edge="1" parent="1" source="SOkhJRATVcnTc7ufOm0G-32" target="SOkhJRATVcnTc7ufOm0G-43">
          <mxGeometry relative="1" as="geometry">
            <Array as="points">
              <mxPoint x="540" y="724" />
            </Array>
          </mxGeometry>
        </mxCell>
        <mxCell id="SOkhJRATVcnTc7ufOm0G-32" value="Private subnet" style="points=[[0,0],[0.25,0],[0.5,0],[0.75,0],[1,0],[1,0.25],[1,0.5],[1,0.75],[1,1],[0.75,1],[0.5,1],[0.25,1],[0,1],[0,0.75],[0,0.5],[0,0.25]];outlineConnect=0;gradientColor=none;html=1;whiteSpace=wrap;fontSize=12;fontStyle=0;container=1;pointerEvents=0;collapsible=0;recursiveResize=0;shape=mxgraph.aws4.group;grIcon=mxgraph.aws4.group_security_group;grStroke=0;strokeColor=#147EBA;fillColor=#E6F2F8;verticalAlign=top;align=left;spacingLeft=30;fontColor=#147EBA;dashed=0;" vertex="1" parent="1">
          <mxGeometry x="498" y="810.5" width="114" height="70" as="geometry" />
        </mxCell>
        <mxCell id="SOkhJRATVcnTc7ufOm0G-44" value="" style="outlineConnect=0;dashed=0;verticalLabelPosition=bottom;verticalAlign=top;align=center;html=1;shape=mxgraph.aws3.ec2_compute_container_2;fillColor=#F58534;gradientColor=none;" vertex="1" parent="SOkhJRATVcnTc7ufOm0G-32">
          <mxGeometry x="32" y="29.5" width="60" height="34.5" as="geometry" />
        </mxCell>
        <mxCell id="SOkhJRATVcnTc7ufOm0G-34" value="Private subnet" style="points=[[0,0],[0.25,0],[0.5,0],[0.75,0],[1,0],[1,0.25],[1,0.5],[1,0.75],[1,1],[0.75,1],[0.5,1],[0.25,1],[0,1],[0,0.75],[0,0.5],[0,0.25]];outlineConnect=0;gradientColor=none;html=1;whiteSpace=wrap;fontSize=12;fontStyle=0;container=1;pointerEvents=0;collapsible=0;recursiveResize=0;shape=mxgraph.aws4.group;grIcon=mxgraph.aws4.group_security_group;grStroke=0;strokeColor=#147EBA;fillColor=#E6F2F8;verticalAlign=top;align=left;spacingLeft=30;fontColor=#147EBA;dashed=0;" vertex="1" parent="1">
          <mxGeometry x="652" y="810" width="110" height="70" as="geometry" />
        </mxCell>
        <mxCell id="SOkhJRATVcnTc7ufOm0G-45" value="" style="rounded=1;arcSize=5;dashed=1;fillColor=none;gradientColor=none;dashPattern=8 3 1 3;strokeWidth=2;" vertex="1" parent="SOkhJRATVcnTc7ufOm0G-34">
          <mxGeometry x="-10" y="-16.379999999999995" width="133.25" height="95.75" as="geometry" />
        </mxCell>
        <mxCell id="SOkhJRATVcnTc7ufOm0G-46" value="" style="outlineConnect=0;dashed=0;verticalLabelPosition=bottom;verticalAlign=top;align=center;html=1;shape=mxgraph.aws3.ec2_compute_container_2;fillColor=#F58534;gradientColor=none;" vertex="1" parent="SOkhJRATVcnTc7ufOm0G-34">
          <mxGeometry x="40" y="30" width="60" height="34.5" as="geometry" />
        </mxCell>
        <mxCell id="SOkhJRATVcnTc7ufOm0G-37" value="" style="edgeStyle=orthogonalEdgeStyle;rounded=0;orthogonalLoop=1;jettySize=auto;html=1;" edge="1" parent="1" source="SOkhJRATVcnTc7ufOm0G-35" target="SOkhJRATVcnTc7ufOm0G-36">
          <mxGeometry relative="1" as="geometry" />
        </mxCell>
        <mxCell id="SOkhJRATVcnTc7ufOm0G-35" value="" style="outlineConnect=0;dashed=0;verticalLabelPosition=bottom;verticalAlign=top;align=center;html=1;shape=mxgraph.aws3.lambda_function;fillColor=#F58534;gradientColor=none;" vertex="1" parent="1">
          <mxGeometry x="510.5" y="590.76" width="40" height="40" as="geometry" />
        </mxCell>
        <mxCell id="SOkhJRATVcnTc7ufOm0G-41" style="edgeStyle=orthogonalEdgeStyle;rounded=0;orthogonalLoop=1;jettySize=auto;html=1;entryX=0;entryY=0.5;entryDx=0;entryDy=0;entryPerimeter=0;" edge="1" parent="1" source="SOkhJRATVcnTc7ufOm0G-36" target="SOkhJRATVcnTc7ufOm0G-40">
          <mxGeometry relative="1" as="geometry" />
        </mxCell>
        <mxCell id="SOkhJRATVcnTc7ufOm0G-36" value="&lt;font style=&quot;font-size: 10px;&quot; face=&quot;Comic Sans MS&quot;&gt;bucket:process&lt;/font&gt;" style="outlineConnect=0;dashed=0;verticalLabelPosition=bottom;verticalAlign=top;align=center;html=1;shape=mxgraph.aws3.bucket_with_objects;fillColor=#E05243;gradientColor=none;" vertex="1" parent="1">
          <mxGeometry x="510.5" y="680" width="40" height="38.25" as="geometry" />
        </mxCell>
        <mxCell id="SOkhJRATVcnTc7ufOm0G-38" value="&lt;i style=&quot;font-size: 9px;&quot;&gt;&lt;font face=&quot;Comic Sans MS&quot; style=&quot;font-size: 9px;&quot;&gt;trigger:after:upload&lt;/font&gt;&lt;/i&gt;" style="text;html=1;strokeColor=none;fillColor=none;align=center;verticalAlign=middle;whiteSpace=wrap;rounded=0;fontSize=9;" vertex="1" parent="1">
          <mxGeometry x="538" y="678" width="130" height="30" as="geometry" />
        </mxCell>
        <mxCell id="SOkhJRATVcnTc7ufOm0G-39" value="quick:validations" style="text;html=1;strokeColor=none;fillColor=none;align=center;verticalAlign=middle;whiteSpace=wrap;rounded=0;fontFamily=Comic Sans MS;fontSize=10;" vertex="1" parent="1">
          <mxGeometry x="546.5" y="593.38" width="89.5" height="21.25" as="geometry" />
        </mxCell>
        <mxCell id="SOkhJRATVcnTc7ufOm0G-40" value="" style="outlineConnect=0;dashed=0;verticalLabelPosition=bottom;verticalAlign=top;align=center;html=1;shape=mxgraph.aws3.sqs;fillColor=#D9A741;gradientColor=none;" vertex="1" parent="1">
          <mxGeometry x="667" y="679" width="30" height="40" as="geometry" />
        </mxCell>
        <mxCell id="SOkhJRATVcnTc7ufOm0G-42" value="move:tobucket" style="text;html=1;strokeColor=none;fillColor=none;align=center;verticalAlign=middle;whiteSpace=wrap;rounded=0;fontFamily=Comic Sans MS;fontSize=10;" vertex="1" parent="1">
          <mxGeometry x="542.5" y="604.38" width="89.5" height="21.25" as="geometry" />
        </mxCell>
        <mxCell id="SOkhJRATVcnTc7ufOm0G-43" value="&lt;i style=&quot;font-size: 9px;&quot;&gt;&lt;font face=&quot;Comic Sans MS&quot; style=&quot;font-size: 9px;&quot;&gt;queue:SQS&lt;/font&gt;&lt;/i&gt;" style="text;html=1;strokeColor=none;fillColor=none;align=center;verticalAlign=middle;whiteSpace=wrap;rounded=0;fontSize=9;" vertex="1" parent="1">
          <mxGeometry x="657" y="714" width="50" height="20" as="geometry" />
        </mxCell>
        <mxCell id="SOkhJRATVcnTc7ufOm0G-47" value="" style="outlineConnect=0;dashed=0;verticalLabelPosition=bottom;verticalAlign=top;align=center;html=1;shape=mxgraph.aws3.cloudwatch;fillColor=#759C3E;gradientColor=none;" vertex="1" parent="1">
          <mxGeometry x="780" y="570" width="40" height="40" as="geometry" />
        </mxCell>
        <mxCell id="SOkhJRATVcnTc7ufOm0G-50" value="" style="endArrow=classic;html=1;rounded=0;exitX=0.285;exitY=0.171;exitDx=0;exitDy=0;exitPerimeter=0;" edge="1" parent="1" source="SOkhJRATVcnTc7ufOm0G-45">
          <mxGeometry width="50" height="50" relative="1" as="geometry">
            <mxPoint x="630" y="780" as="sourcePoint" />
            <mxPoint x="680" y="730" as="targetPoint" />
          </mxGeometry>
        </mxCell>
        <mxCell id="SOkhJRATVcnTc7ufOm0G-51" value="cosumes:group:a" style="text;html=1;strokeColor=none;fillColor=none;align=center;verticalAlign=middle;whiteSpace=wrap;rounded=0;fontFamily=Comic Sans MS;fontSize=10;" vertex="1" parent="1">
          <mxGeometry x="675" y="743" width="105" height="20" as="geometry" />
        </mxCell>
        <mxCell id="SOkhJRATVcnTc7ufOm0G-53" value="cosumes:group:b" style="text;html=1;strokeColor=none;fillColor=none;align=center;verticalAlign=middle;whiteSpace=wrap;rounded=0;fontFamily=Comic Sans MS;fontSize=10;" vertex="1" parent="1">
          <mxGeometry x="535" y="743" width="105" height="20" as="geometry" />
        </mxCell>
        <mxCell id="SOkhJRATVcnTc7ufOm0G-81" value="" style="rounded=1;arcSize=3;dashed=0;fillColor=none;gradientColor=none;strokeWidth=2;" vertex="1" parent="1">
          <mxGeometry x="280" y="771" width="180" height="149" as="geometry" />
        </mxCell>
        <mxCell id="SOkhJRATVcnTc7ufOm0G-82" value="" style="dashed=0;html=1;shape=mxgraph.aws3.virtual_private_cloud;fillColor=#F58536;gradientColor=none;dashed=0;" vertex="1" parent="1">
          <mxGeometry x="290" y="760" width="40" height="24" as="geometry" />
        </mxCell>
        <mxCell id="SOkhJRATVcnTc7ufOm0G-86" value="Private subnet" style="points=[[0,0],[0.25,0],[0.5,0],[0.75,0],[1,0],[1,0.25],[1,0.5],[1,0.75],[1,1],[0.75,1],[0.5,1],[0.25,1],[0,1],[0,0.75],[0,0.5],[0,0.25]];outlineConnect=0;gradientColor=none;html=1;whiteSpace=wrap;fontSize=12;fontStyle=0;container=1;pointerEvents=0;collapsible=0;recursiveResize=0;shape=mxgraph.aws4.group;grIcon=mxgraph.aws4.group_security_group;grStroke=0;strokeColor=#147EBA;fillColor=#E6F2F8;verticalAlign=top;align=left;spacingLeft=30;fontColor=#147EBA;dashed=0;" vertex="1" parent="1">
          <mxGeometry x="320" y="810" width="110" height="70" as="geometry" />
        </mxCell>
        <mxCell id="SOkhJRATVcnTc7ufOm0G-87" value="" style="rounded=1;arcSize=5;dashed=1;fillColor=none;gradientColor=none;dashPattern=8 3 1 3;strokeWidth=2;" vertex="1" parent="SOkhJRATVcnTc7ufOm0G-86">
          <mxGeometry x="-10" y="-16.379999999999995" width="133.25" height="95.75" as="geometry" />
        </mxCell>
        <mxCell id="SOkhJRATVcnTc7ufOm0G-88" value="" style="outlineConnect=0;dashed=0;verticalLabelPosition=bottom;verticalAlign=top;align=center;html=1;shape=mxgraph.aws3.ec2_compute_container_2;fillColor=#F58534;gradientColor=none;" vertex="1" parent="SOkhJRATVcnTc7ufOm0G-86">
          <mxGeometry x="40" y="30" width="60" height="34.5" as="geometry" />
        </mxCell>
        <mxCell id="SOkhJRATVcnTc7ufOm0G-91" value="" style="endArrow=classic;html=1;rounded=0;exitX=0.145;exitY=0.855;exitDx=0;exitDy=0;exitPerimeter=0;entryX=0.5;entryY=0;entryDx=0;entryDy=0;dashed=1;" edge="1" parent="1" source="SOkhJRATVcnTc7ufOm0G-35" target="SOkhJRATVcnTc7ufOm0G-87">
          <mxGeometry width="50" height="50" relative="1" as="geometry">
            <mxPoint x="310" y="780" as="sourcePoint" />
            <mxPoint x="360" y="730" as="targetPoint" />
          </mxGeometry>
        </mxCell>
        <mxCell id="SOkhJRATVcnTc7ufOm0G-92" value="&lt;meta charset=&quot;utf-8&quot; style=&quot;font-size: 10px;&quot;&gt;&lt;span style=&quot;color: rgb(35, 38, 41); font-family: ui-monospace, &amp;quot;Cascadia Mono&amp;quot;, &amp;quot;Segoe UI Mono&amp;quot;, &amp;quot;Liberation Mono&amp;quot;, Menlo, Monaco, Consolas, monospace; font-size: 10px; font-style: normal; font-variant-ligatures: normal; font-variant-caps: normal; font-weight: 400; letter-spacing: normal; orphans: 2; text-align: left; text-indent: 0px; text-transform: none; widows: 2; word-spacing: 0px; -webkit-text-stroke-width: 0px; background-color: rgb(227, 230, 232); text-decoration-thickness: initial; text-decoration-style: initial; text-decoration-color: initial; float: none; display: inline !important;&quot;&gt;ecs.runTask(taskParams, callback)&lt;/span&gt;" style="text;html=1;strokeColor=none;fillColor=none;align=center;verticalAlign=middle;whiteSpace=wrap;rounded=0;fontSize=10;" vertex="1" parent="1">
          <mxGeometry x="273.75" y="730" width="215" height="10" as="geometry" />
        </mxCell>
        <mxCell id="SOkhJRATVcnTc7ufOm0G-93" value="" style="image;html=1;image=img/lib/clip_art/computers/Mainframe_128x128.png" vertex="1" parent="1">
          <mxGeometry x="697" y="970" width="80" height="80" as="geometry" />
        </mxCell>
        <mxCell id="SOkhJRATVcnTc7ufOm0G-94" value="" style="image;html=1;image=img/lib/clip_art/computers/Mainframe_128x128.png" vertex="1" parent="1">
          <mxGeometry x="737" y="970" width="80" height="80" as="geometry" />
        </mxCell>
        <mxCell id="SOkhJRATVcnTc7ufOm0G-95" value="&lt;b&gt;IBM Mainframe&lt;/b&gt;" style="text;html=1;strokeColor=none;fillColor=none;align=center;verticalAlign=middle;whiteSpace=wrap;rounded=0;" vertex="1" parent="1">
          <mxGeometry x="697" y="1050" width="113" height="30" as="geometry" />
        </mxCell>
        <mxCell id="SOkhJRATVcnTc7ufOm0G-96" value="" style="endArrow=classic;startArrow=classic;html=1;rounded=0;exitX=0.288;exitY=0.5;exitDx=0;exitDy=0;exitPerimeter=0;" edge="1" parent="1" source="SOkhJRATVcnTc7ufOm0G-93">
          <mxGeometry width="50" height="50" relative="1" as="geometry">
            <mxPoint x="590" y="970" as="sourcePoint" />
            <mxPoint x="640" y="920" as="targetPoint" />
            <Array as="points">
              <mxPoint x="640" y="1010" />
            </Array>
          </mxGeometry>
        </mxCell>
        <mxCell id="SOkhJRATVcnTc7ufOm0G-97" value="" style="endArrow=classic;startArrow=none;html=1;rounded=0;startFill=0;" edge="1" parent="1" source="SOkhJRATVcnTc7ufOm0G-93">
          <mxGeometry width="50" height="50" relative="1" as="geometry">
            <mxPoint x="320" y="970" as="sourcePoint" />
            <mxPoint x="370" y="920" as="targetPoint" />
            <Array as="points">
              <mxPoint x="370" y="1010" />
            </Array>
          </mxGeometry>
        </mxCell>
        <mxCell id="SOkhJRATVcnTc7ufOm0G-98" value="On-Premise" style="sketch=0;outlineConnect=0;gradientColor=none;html=1;whiteSpace=wrap;fontSize=12;fontStyle=0;shape=mxgraph.aws4.group;grIcon=mxgraph.aws4.group_on_premise;strokeColor=#AAB7B8;fillColor=none;verticalAlign=top;align=left;spacingLeft=30;fontColor=#AAB7B8;dashed=0;" vertex="1" parent="1">
          <mxGeometry x="840" y="535" width="153" height="405" as="geometry" />
        </mxCell>
        <mxCell id="SOkhJRATVcnTc7ufOm0G-99" value="" style="image;sketch=0;aspect=fixed;html=1;points=[];align=center;fontSize=12;image=img/lib/mscae/App_Service_IPAddress.svg;" vertex="1" parent="1">
          <mxGeometry x="892" y="596" width="50" height="42" as="geometry" />
        </mxCell>
        <mxCell id="SOkhJRATVcnTc7ufOm0G-100" value="" style="image;sketch=0;aspect=fixed;html=1;points=[];align=center;fontSize=12;image=img/lib/mscae/App_Service_IPAddress.svg;" vertex="1" parent="1">
          <mxGeometry x="891.5" y="681" width="50" height="42" as="geometry" />
        </mxCell>
        <mxCell id="SOkhJRATVcnTc7ufOm0G-101" value="" style="image;sketch=0;aspect=fixed;html=1;points=[];align=center;fontSize=12;image=img/lib/mscae/App_Service_IPAddress.svg;" vertex="1" parent="1">
          <mxGeometry x="889.5" y="765" width="50" height="42" as="geometry" />
        </mxCell>
        <mxCell id="SOkhJRATVcnTc7ufOm0G-102" value="&lt;font style=&quot;font-size: 10px;&quot; face=&quot;Comic Sans MS&quot;&gt;third-api-validations-1&lt;/font&gt;" style="text;html=1;strokeColor=none;fillColor=none;align=center;verticalAlign=middle;whiteSpace=wrap;rounded=0;" vertex="1" parent="1">
          <mxGeometry x="857" y="629.88" width="120" height="30" as="geometry" />
        </mxCell>
        <mxCell id="SOkhJRATVcnTc7ufOm0G-103" value="&lt;font style=&quot;font-size: 10px;&quot; face=&quot;Comic Sans MS&quot;&gt;third-api-validations-2&lt;/font&gt;" style="text;html=1;strokeColor=none;fillColor=none;align=center;verticalAlign=middle;whiteSpace=wrap;rounded=0;" vertex="1" parent="1">
          <mxGeometry x="856.5" y="719" width="120" height="30" as="geometry" />
        </mxCell>
        <mxCell id="SOkhJRATVcnTc7ufOm0G-104" value="&lt;font style=&quot;font-size: 10px;&quot; face=&quot;Comic Sans MS&quot;&gt;third-api-validations-3&lt;/font&gt;" style="text;html=1;strokeColor=none;fillColor=none;align=center;verticalAlign=middle;whiteSpace=wrap;rounded=0;" vertex="1" parent="1">
          <mxGeometry x="857" y="800" width="120" height="30" as="geometry" />
        </mxCell>
        <mxCell id="SOkhJRATVcnTc7ufOm0G-109" value="" style="endArrow=classic;html=1;rounded=0;" edge="1" parent="1">
          <mxGeometry width="50" height="50" relative="1" as="geometry">
            <mxPoint x="840" y="850" as="sourcePoint" />
            <mxPoint x="790" y="850" as="targetPoint" />
          </mxGeometry>
        </mxCell>
        <mxCell id="SOkhJRATVcnTc7ufOm0G-110" value="" style="endArrow=classic;html=1;rounded=0;exitX=1;exitY=0.75;exitDx=0;exitDy=0;" edge="1" parent="1">
          <mxGeometry width="50" height="50" relative="1" as="geometry">
            <mxPoint x="792" y="880" as="sourcePoint" />
            <mxPoint x="840" y="880" as="targetPoint" />
          </mxGeometry>
        </mxCell>
        <mxCell id="SOkhJRATVcnTc7ufOm0G-111" value="" style="image;sketch=0;aspect=fixed;html=1;points=[];align=center;fontSize=12;image=img/lib/mscae/App_Service_IPAddress.svg;" vertex="1" parent="1">
          <mxGeometry x="891" y="849" width="50" height="42" as="geometry" />
        </mxCell>
        <mxCell id="SOkhJRATVcnTc7ufOm0G-112" value="&lt;font style=&quot;font-size: 10px;&quot; face=&quot;Comic Sans MS&quot;&gt;third-api-validations-4&lt;/font&gt;" style="text;html=1;strokeColor=none;fillColor=none;align=center;verticalAlign=middle;whiteSpace=wrap;rounded=0;" vertex="1" parent="1">
          <mxGeometry x="856.5" y="885" width="120" height="30" as="geometry" />
        </mxCell>
      </root>
    </mxGraphModel>
  </diagram>
</mxfile>
